name C:\Users\tom_v\MusculoskeletalSpecialization_revisited\Results\Case_16\motion.mot
datacolumns 32
datarows 13
range 0.25635883 0.31788495
endheader 
time	pelvis_tilt	pelvis_list	pelvis_rotation	pelvis_tx	pelvis_ty	pelvis_tz	hip_flexion_r	hip_adduction_r	hip_rotation_r	knee_angle_r	ankle_angle_r	subtalar_angle_r	mtp_angle_r	hip_flexion_l	hip_adduction_l	hip_rotation_l	knee_angle_l	ankle_angle_l	subtalar_angle_l	mtp_angle_l	lumbar_extension	lumbar_bending	lumbar_rotation	arm_flex_r	arm_add_r	arm_rot_r	elbow_flex_r	arm_flex_l	arm_add_l	arm_rot_l	elbow_flex_l	
          0.25635883	         -6.57171735	          1.23667707	          0.99887311	          0.85367489	          0.93689189	         -0.00019783	          1.71159532	          1.07590142	          0.42362460	        -47.49198136	         -3.85910773	          9.23473494	         16.22027340	         39.28054761	          7.01540214	          3.68576399	        -35.14071629	          8.89365267	          0.99038162	          0.62603770	        -10.68333090	         -3.65139553	          3.07617021	         14.22143712	         -1.55194759	          2.76756067	          4.61152796	          5.37040313	         -2.20655013	          0.72141047	         44.02594519	
          0.26148600	         -6.53081609	          1.19586546	          1.00130899	          0.87124953	          0.93448533	         -0.00039576	          2.67979335	          1.05257308	          0.37190566	        -49.01567143	         -2.49341179	          9.04825033	         15.19285594	         38.67419931	          7.19962310	          3.99036225	        -36.14989531	          9.79668496	          0.50276448	          0.70491925	        -10.62283938	         -3.65802045	          2.98888851	         13.72843833	         -1.70266779	          2.96876187	          5.76716881	          5.83070301	         -2.07396598	          0.74994694	         42.52542148	
          0.26661318	         -6.49307080	          1.16045864	          1.00334938	          0.88868528	          0.93213277	         -0.00058283	          3.73530051	          1.03263577	          0.31306243	        -50.49407046	         -1.03738086	          8.81316510	         14.22946474	         38.08075746	          7.41150291	          4.31583070	        -37.20437096	         11.06240267	          0.01243362	          0.98506428	        -10.57904715	         -3.66830693	          2.88890305	         13.20862552	         -1.86466920	          3.12619158	          7.08592731	          6.34770524	         -1.93765207	          0.77483576	         40.91726706	
          0.27174036	         -6.45957761	          1.13783968	          1.00173793	          0.90596251	          0.92992937	         -0.00076575	          4.87156041	          1.01380276	          0.26523448	        -51.90413196	          0.48687540	          8.53599416	         13.32589184	         37.48811885	          7.65810942	          4.66633276	        -38.26669954	         12.53321197	         -0.48065557	          1.45330988	        -10.55376601	         -3.68630364	          2.77850549	         12.66756435	         -2.03690516	          3.23765036	          8.56156852	          6.93019216	         -1.79617896	          0.79909047	         39.18163403	
          0.27686753	         -6.43106465	          1.12253766	          0.99442220	          0.92308948	          0.92794973	         -0.00094452	          6.07566753	          1.00460205	          0.23361079	        -53.21575849	          2.06942278	          8.22062719	         12.47797594	         36.84948880	          7.91718075	          5.02420433	        -39.23337817	         13.94997832	         -1.00250910	          2.06176936	        -10.54499290	         -3.70207368	          2.65894484	         12.10933225	         -2.21789288	          3.30434657	         10.18240821	          7.57666328	         -1.64811241	          0.82198998	         37.31029370	
          0.28199471	         -6.40815042	          1.11103638	          0.98102381	          0.94007811	          0.92624437	         -0.00111961	          7.33742153	          1.00874727	          0.21596137	        -54.41233920	          3.70023183	          7.87389941	         11.68249295	         36.13633702	          8.17278546	          5.38045849	        -40.05500649	         15.27057820	         -1.53262900	          2.77308242	        -10.55060742	         -3.70928113	          2.52975180	         11.53749147	         -2.40508391	          3.32778793	         11.93536824	          8.28146901	         -1.49346981	          0.84137322	         35.30749042	
          0.28712189	         -6.39117087	          1.09998112	          0.96209935	          0.95693652	          0.92484199	         -0.00129080	          8.64952884	          1.02967242	          0.20932514	        -55.48853484	          5.36160126	          7.50293706	         10.93628206	         35.34387521	          8.41378907	          5.72845419	        -40.72092699	         16.47340210	         -2.05605511	          3.55727287	        -10.56956444	         -3.70307435	          2.39058102	         10.95565242	         -2.59580821	          3.30944303	         13.80702892	          9.03731699	         -1.33290732	          0.85441210	         33.18740792	
          0.29224906	         -6.38019064	          1.08606628	          0.93826538	          0.97367516	          0.92375335	         -0.00145639	         10.00468015	          1.07031206	          0.21006650	        -56.44387375	          7.04420466	          7.11422704	         10.23550522	         34.47624291	          8.63160945	          6.06314939	        -41.23539960	         17.54415555	         -2.56258435	          4.39508137	        -10.60078147	         -3.67965679	          2.24169717	         10.36684269	         -2.78731286	          3.25145739	         15.78328903	          9.83447314	         -1.16766722	          0.85742568	         30.97217556	
          0.29737624	         -6.37508838	          1.06629266	          0.91015629	          0.99030921	          0.92297699	         -0.00161398	         11.39466641	          1.13246480	          0.21364808	        -57.27883957	          8.72332652	          6.71399560	          9.57766963	         33.53734776	          8.81893420	          6.38061041	        -41.60391013	         18.47888220	         -3.04314664	          5.27487091	        -10.64265848	         -3.63614710	          2.08352049	          9.77364192	         -2.97672433	          3.15719997	         17.84875760	         10.66075304	         -0.99960445	          0.84582580	         28.68956843	
          0.30250342	         -6.37560352	          1.03807157	          0.87826798	          1.00685664	          0.92250389	         -0.00176061	         12.81066340	          1.21723379	          0.21571126	        -57.99467669	         10.37986144	          6.31163517	          8.95844216	         32.52969436	          8.96930953	          6.67747301	        -41.83064063	         19.27884943	         -3.48950397	          6.19114684	        -10.69330669	         -3.57043752	          1.91664415	          9.17874663	         -3.16117159	          3.03129397	         19.98640132	         11.50249058	         -0.83113627	          0.81463921	         26.37078162	
          0.30763059	         -6.38141521	          0.99934305	          0.84324232	          1.02333653	          0.92232062	         -0.00189365	         14.24364859	          1.32523734	          0.21254314	        -58.59326991	         12.00102686	          5.91186581	          8.37455600	         31.45500354	          9.07777556	          6.95165349	        -41.91925529	         19.95089094	         -3.89423401	          7.13903988	        -10.75072471	         -3.48113555	          1.74143349	          8.58533996	         -3.33789405	          2.87955888	         22.17749900	         12.34532311	         -0.66513820	          0.75866347	         24.04867765	
          0.31275777	         -6.39207116	          0.94871052	          0.80500336	          1.03976997	          0.92241130	         -0.00201037	         15.68358528	          1.45577347	          0.20073395	        -59.07495541	         13.57085574	          5.52058294	          7.82455308	         30.31401665	          9.14085269	          7.20191224	        -41.87258843	         20.50457546	         -4.25209603	          8.11305599	        -10.81260103	         -3.36766918	          1.55928067	          7.99652552	         -3.50461494	          2.70822556	         24.40222959	         13.17505691	         -0.50451976	          0.67343934	         21.75533768	
          0.31788495	         -6.40704981	          0.88485569	          0.76307557	          1.05617810	          0.92275837	         -0.00210916	         17.12008610	          1.60760688	          0.17704801	        -59.43869231	         15.06922893	          5.14388838	          7.30753371	         29.10771708	          9.15654450	          7.42832368	        -41.69405488	         20.94806322	         -4.56168530	          9.10770455	        -10.87660159	         -3.22940420	          1.37249312	          7.41520181	         -3.65984813	          2.52308198	         26.64079576	         13.97849393	         -0.35180134	          0.55569545	         19.52063431	
